<mxfile host="app.diagrams.net" agent="Mozilla/5.0 (X11; Ubuntu; Linux x86_64; rv:132.0) Gecko/20100101 Firefox/132.0" version="24.8.4">
  <diagram name="Page-1" id="dhVD2PQtjdIKErrPHH7W">
    <mxGraphModel dx="1838" dy="272" grid="1" gridSize="10" guides="1" tooltips="1" connect="1" arrows="1" fold="1" page="1" pageScale="1" pageWidth="200" pageHeight="160" math="1" shadow="0">
      <root>
        <mxCell id="0" />
        <mxCell id="1" parent="0" />
        <mxCell id="_JaqBbKDhkF4LJ-Z1eiI-10" value="" style="shape=cube;whiteSpace=wrap;html=1;boundedLbl=1;backgroundOutline=1;darkOpacity=0.05;darkOpacity2=0.1;size=0;flipH=1;fillColor=#FFFFFF;rotation=90;" vertex="1" parent="1">
          <mxGeometry x="-990" y="180" width="40" height="42.5" as="geometry" />
        </mxCell>
        <mxCell id="_JaqBbKDhkF4LJ-Z1eiI-12" value="" style="shape=cube;whiteSpace=wrap;html=1;boundedLbl=1;backgroundOutline=1;darkOpacity=0.05;darkOpacity2=0.1;size=0;flipH=1;fillColor=#FFFFFF;rotation=90;" vertex="1" parent="1">
          <mxGeometry x="-988.75" y="260.25" width="40" height="42.5" as="geometry" />
        </mxCell>
        <mxCell id="_JaqBbKDhkF4LJ-Z1eiI-21" value="&lt;font style=&quot;font-size: 24px;&quot;&gt;$$&amp;gt;$$&lt;/font&gt;" style="ellipse;whiteSpace=wrap;html=1;aspect=fixed;fillColor=#F0F0F0;" vertex="1" parent="1">
          <mxGeometry x="-868.75" y="220.25" width="40" height="40" as="geometry" />
        </mxCell>
        <mxCell id="_JaqBbKDhkF4LJ-Z1eiI-27" value="" style="endArrow=classic;html=1;rounded=0;entryX=0;entryY=0;entryDx=0;entryDy=0;exitX=0;exitY=0;exitDx=20;exitDy=0;exitPerimeter=0;" edge="1" parent="1" source="_JaqBbKDhkF4LJ-Z1eiI-10" target="_JaqBbKDhkF4LJ-Z1eiI-21">
          <mxGeometry width="50" height="50" relative="1" as="geometry">
            <mxPoint x="-938.75" y="201.25" as="sourcePoint" />
            <mxPoint x="-868.75" y="201.25" as="targetPoint" />
            <Array as="points">
              <mxPoint x="-898.75" y="201.25" />
            </Array>
          </mxGeometry>
        </mxCell>
        <mxCell id="_JaqBbKDhkF4LJ-Z1eiI-28" value="" style="endArrow=classic;html=1;rounded=0;entryX=0;entryY=1;entryDx=0;entryDy=0;exitX=0;exitY=0;exitDx=20;exitDy=0;exitPerimeter=0;" edge="1" parent="1" source="_JaqBbKDhkF4LJ-Z1eiI-12" target="_JaqBbKDhkF4LJ-Z1eiI-21">
          <mxGeometry width="50" height="50" relative="1" as="geometry">
            <mxPoint x="-928.75" y="321.25" as="sourcePoint" />
            <mxPoint x="-878.75" y="271.25" as="targetPoint" />
            <Array as="points">
              <mxPoint x="-898.75" y="281.25" />
            </Array>
          </mxGeometry>
        </mxCell>
        <mxCell id="_JaqBbKDhkF4LJ-Z1eiI-29" value="" style="endArrow=classic;html=1;rounded=0;entryX=0;entryY=0.5;entryDx=0;entryDy=0;exitX=1;exitY=0.5;exitDx=0;exitDy=0;" edge="1" parent="1" source="_JaqBbKDhkF4LJ-Z1eiI-21" target="_JaqBbKDhkF4LJ-Z1eiI-11">
          <mxGeometry width="50" height="50" relative="1" as="geometry">
            <mxPoint x="-858.75" y="321.25" as="sourcePoint" />
            <mxPoint x="-808.75" y="271.25" as="targetPoint" />
          </mxGeometry>
        </mxCell>
        <mxCell id="_JaqBbKDhkF4LJ-Z1eiI-40" value="" style="shape=cube;whiteSpace=wrap;html=1;boundedLbl=1;backgroundOutline=1;darkOpacity=0.05;darkOpacity2=0.1;size=0;flipH=1;fillColor=#FFFFFF;rotation=90;" vertex="1" parent="1">
          <mxGeometry x="-989.75" y="340.25" width="40" height="42.5" as="geometry" />
        </mxCell>
        <mxCell id="_JaqBbKDhkF4LJ-Z1eiI-41" value="" style="shape=cube;whiteSpace=wrap;html=1;boundedLbl=1;backgroundOutline=1;darkOpacity=0.05;darkOpacity2=0.1;size=0;flipH=1;fillColor=#FFFFFF;rotation=90;" vertex="1" parent="1">
          <mxGeometry x="-988.5" y="420.5" width="40" height="42.5" as="geometry" />
        </mxCell>
        <mxCell id="_JaqBbKDhkF4LJ-Z1eiI-42" value="" style="group;strokeWidth=1;fillColor=#9A9B9E;strokeColor=default;container=0;" vertex="1" connectable="0" parent="1">
          <mxGeometry x="-748.5" y="371.5" width="40" height="60" as="geometry" />
        </mxCell>
        <mxCell id="_JaqBbKDhkF4LJ-Z1eiI-43" value="&lt;font style=&quot;font-size: 24px;&quot;&gt;$$&amp;gt;$$&lt;/font&gt;" style="ellipse;whiteSpace=wrap;html=1;aspect=fixed;fillColor=#F0F0F0;" vertex="1" parent="1">
          <mxGeometry x="-868.5" y="380.5" width="40" height="40" as="geometry" />
        </mxCell>
        <mxCell id="_JaqBbKDhkF4LJ-Z1eiI-44" value="" style="endArrow=classic;html=1;rounded=0;entryX=0;entryY=0;entryDx=0;entryDy=0;exitX=0;exitY=0;exitDx=20;exitDy=0;exitPerimeter=0;" edge="1" parent="1" source="_JaqBbKDhkF4LJ-Z1eiI-40" target="_JaqBbKDhkF4LJ-Z1eiI-43">
          <mxGeometry width="50" height="50" relative="1" as="geometry">
            <mxPoint x="-938.5" y="361.5" as="sourcePoint" />
            <mxPoint x="-868.5" y="361.5" as="targetPoint" />
            <Array as="points">
              <mxPoint x="-898.5" y="361.5" />
            </Array>
          </mxGeometry>
        </mxCell>
        <mxCell id="_JaqBbKDhkF4LJ-Z1eiI-45" value="" style="endArrow=classic;html=1;rounded=0;entryX=0;entryY=1;entryDx=0;entryDy=0;exitX=0;exitY=0;exitDx=20;exitDy=0;exitPerimeter=0;" edge="1" parent="1" source="_JaqBbKDhkF4LJ-Z1eiI-41" target="_JaqBbKDhkF4LJ-Z1eiI-43">
          <mxGeometry width="50" height="50" relative="1" as="geometry">
            <mxPoint x="-928.5" y="481.5" as="sourcePoint" />
            <mxPoint x="-878.5" y="431.5" as="targetPoint" />
            <Array as="points">
              <mxPoint x="-898.5" y="441.5" />
            </Array>
          </mxGeometry>
        </mxCell>
        <mxCell id="_JaqBbKDhkF4LJ-Z1eiI-46" value="" style="endArrow=classic;html=1;rounded=0;entryX=0;entryY=0.5;entryDx=0;entryDy=0;exitX=1;exitY=0.5;exitDx=0;exitDy=0;" edge="1" parent="1" source="_JaqBbKDhkF4LJ-Z1eiI-43" target="_JaqBbKDhkF4LJ-Z1eiI-47">
          <mxGeometry width="50" height="50" relative="1" as="geometry">
            <mxPoint x="-858.5" y="481.5" as="sourcePoint" />
            <mxPoint x="-808.5" y="431.5" as="targetPoint" />
          </mxGeometry>
        </mxCell>
        <mxCell id="_JaqBbKDhkF4LJ-Z1eiI-47" value="" style="rounded=0;whiteSpace=wrap;html=1;fillColor=#9A9B9E;" vertex="1" parent="1">
          <mxGeometry x="-748.5" y="371.5" width="40" height="60" as="geometry" />
        </mxCell>
        <mxCell id="_JaqBbKDhkF4LJ-Z1eiI-48" value="" style="triangle;whiteSpace=wrap;html=1;rotation=90;fillColor=#9A9B9E;" vertex="1" parent="1">
          <mxGeometry x="-738.5" y="361.5" width="20" height="40" as="geometry" />
        </mxCell>
        <mxCell id="_JaqBbKDhkF4LJ-Z1eiI-49" value="&lt;font style=&quot;font-size: 24px;&quot;&gt;$$&amp;gt;$$&lt;/font&gt;" style="ellipse;whiteSpace=wrap;html=1;aspect=fixed;fillColor=#F0F0F0;" vertex="1" parent="1">
          <mxGeometry x="-628.75" y="300.25" width="40" height="40" as="geometry" />
        </mxCell>
        <mxCell id="_JaqBbKDhkF4LJ-Z1eiI-52" value="" style="group" vertex="1" connectable="0" parent="1">
          <mxGeometry x="-748.75" y="211.25" width="40" height="60" as="geometry" />
        </mxCell>
        <mxCell id="_JaqBbKDhkF4LJ-Z1eiI-17" value="" style="group;strokeWidth=1;fillColor=#9A9B9E;strokeColor=default;container=0;" vertex="1" connectable="0" parent="_JaqBbKDhkF4LJ-Z1eiI-52">
          <mxGeometry width="40" height="60" as="geometry" />
        </mxCell>
        <mxCell id="_JaqBbKDhkF4LJ-Z1eiI-11" value="" style="rounded=0;whiteSpace=wrap;html=1;fillColor=#9A9B9E;" vertex="1" parent="_JaqBbKDhkF4LJ-Z1eiI-52">
          <mxGeometry width="40" height="60" as="geometry" />
        </mxCell>
        <mxCell id="_JaqBbKDhkF4LJ-Z1eiI-16" value="" style="triangle;whiteSpace=wrap;html=1;rotation=90;fillColor=#9A9B9E;" vertex="1" parent="_JaqBbKDhkF4LJ-Z1eiI-52">
          <mxGeometry x="10" y="-10" width="20" height="40" as="geometry" />
        </mxCell>
        <mxCell id="_JaqBbKDhkF4LJ-Z1eiI-53" value="" style="group" vertex="1" connectable="0" parent="1">
          <mxGeometry x="-508.75" y="290.25" width="40" height="60" as="geometry" />
        </mxCell>
        <mxCell id="_JaqBbKDhkF4LJ-Z1eiI-54" value="" style="group;strokeWidth=1;fillColor=#9A9B9E;strokeColor=default;container=0;" vertex="1" connectable="0" parent="_JaqBbKDhkF4LJ-Z1eiI-53">
          <mxGeometry width="40" height="60" as="geometry" />
        </mxCell>
        <mxCell id="_JaqBbKDhkF4LJ-Z1eiI-55" value="" style="rounded=0;whiteSpace=wrap;html=1;fillColor=#9A9B9E;" vertex="1" parent="_JaqBbKDhkF4LJ-Z1eiI-53">
          <mxGeometry width="40" height="60" as="geometry" />
        </mxCell>
        <mxCell id="_JaqBbKDhkF4LJ-Z1eiI-56" value="" style="triangle;whiteSpace=wrap;html=1;rotation=90;fillColor=#9A9B9E;" vertex="1" parent="_JaqBbKDhkF4LJ-Z1eiI-53">
          <mxGeometry x="10" y="-10" width="20" height="40" as="geometry" />
        </mxCell>
        <mxCell id="_JaqBbKDhkF4LJ-Z1eiI-57" value="" style="endArrow=classic;html=1;rounded=0;exitX=1;exitY=0.5;exitDx=0;exitDy=0;entryX=0;entryY=0;entryDx=0;entryDy=0;" edge="1" parent="1" source="_JaqBbKDhkF4LJ-Z1eiI-11" target="_JaqBbKDhkF4LJ-Z1eiI-49">
          <mxGeometry width="50" height="50" relative="1" as="geometry">
            <mxPoint x="-688.75" y="261.25" as="sourcePoint" />
            <mxPoint x="-638.75" y="211.25" as="targetPoint" />
            <Array as="points">
              <mxPoint x="-648.75" y="241.25" />
            </Array>
          </mxGeometry>
        </mxCell>
        <mxCell id="_JaqBbKDhkF4LJ-Z1eiI-58" value="" style="endArrow=classic;html=1;rounded=0;exitX=1;exitY=0.5;exitDx=0;exitDy=0;entryX=0;entryY=1;entryDx=0;entryDy=0;" edge="1" parent="1" source="_JaqBbKDhkF4LJ-Z1eiI-47" target="_JaqBbKDhkF4LJ-Z1eiI-49">
          <mxGeometry width="50" height="50" relative="1" as="geometry">
            <mxPoint x="-688.75" y="411.25" as="sourcePoint" />
            <mxPoint x="-638.75" y="361.25" as="targetPoint" />
            <Array as="points">
              <mxPoint x="-648.75" y="401.25" />
            </Array>
          </mxGeometry>
        </mxCell>
        <mxCell id="_JaqBbKDhkF4LJ-Z1eiI-59" value="" style="endArrow=classic;html=1;rounded=0;entryX=0;entryY=0.5;entryDx=0;entryDy=0;exitX=1;exitY=0.5;exitDx=0;exitDy=0;" edge="1" parent="1" source="_JaqBbKDhkF4LJ-Z1eiI-49" target="_JaqBbKDhkF4LJ-Z1eiI-55">
          <mxGeometry width="50" height="50" relative="1" as="geometry">
            <mxPoint x="-578.75" y="361.25" as="sourcePoint" />
            <mxPoint x="-528.75" y="311.25" as="targetPoint" />
          </mxGeometry>
        </mxCell>
        <mxCell id="_JaqBbKDhkF4LJ-Z1eiI-60" value="" style="endArrow=classic;html=1;rounded=0;exitX=1;exitY=0.5;exitDx=0;exitDy=0;" edge="1" parent="1" source="_JaqBbKDhkF4LJ-Z1eiI-55">
          <mxGeometry width="50" height="50" relative="1" as="geometry">
            <mxPoint x="-448.75" y="331.25" as="sourcePoint" />
            <mxPoint x="-428.75" y="320.25" as="targetPoint" />
          </mxGeometry>
        </mxCell>
      </root>
    </mxGraphModel>
  </diagram>
</mxfile>
